<svg xmlns="http://www.w3.org/2000/svg" xmlns:xlink="http://www.w3.org/1999/xlink" width="50" zoomAndPan="magnify" viewBox="0 0 37.5 37.499999" height="50" preserveAspectRatio="xMidYMid meet" version="1.0"><defs><g/><clipPath id="ff51eba09a"><path d="M 2 0 L 35 0 L 35 33 L 2 33 Z M 2 0 " clip-rule="nonzero"/></clipPath><clipPath id="bd50354784"><path d="M 37.136719 29.382812 L 5.996094 35.027344 L 0.351562 3.886719 L 31.492188 -1.757812 Z M 37.136719 29.382812 " clip-rule="nonzero"/></clipPath><clipPath id="4a49d4550d"><path d="M 6 4 L 31 4 L 31 29 L 6 29 Z M 6 4 " clip-rule="nonzero"/></clipPath><clipPath id="31cf720bb6"><path d="M 32.902344 26.445312 L 8.9375 30.792969 L 4.589844 6.828125 L 28.554688 2.480469 Z M 32.902344 26.445312 " clip-rule="nonzero"/></clipPath><clipPath id="20d592facb"><path d="M 22.695312 22.515625 L 33.195312 22.515625 L 33.195312 37.007812 L 22.695312 37.007812 Z M 22.695312 22.515625 " clip-rule="nonzero"/></clipPath></defs><g clip-path="url(#ff51eba09a)"><g clip-path="url(#bd50354784)"><path fill="#ffffff" d="M 21.566406 32.203125 C 21.054688 32.296875 20.542969 32.363281 20.027344 32.40625 C 19.511719 32.449219 18.992188 32.464844 18.476562 32.457031 C 17.957031 32.445312 17.441406 32.414062 16.925781 32.351562 C 16.410156 32.292969 15.898438 32.210938 15.394531 32.097656 C 14.886719 31.988281 14.386719 31.855469 13.894531 31.695312 C 13.402344 31.539062 12.917969 31.355469 12.441406 31.148438 C 11.964844 30.941406 11.5 30.714844 11.046875 30.460938 C 10.597656 30.207031 10.15625 29.933594 9.730469 29.640625 C 9.304688 29.34375 8.894531 29.03125 8.5 28.695312 C 8.105469 28.359375 7.726562 28.003906 7.367188 27.632812 C 7.007812 27.257812 6.664062 26.871094 6.34375 26.464844 C 6.023438 26.058594 5.71875 25.636719 5.441406 25.199219 C 5.160156 24.765625 4.902344 24.316406 4.664062 23.855469 C 4.429688 23.394531 4.214844 22.921875 4.023438 22.441406 C 3.835938 21.957031 3.667969 21.46875 3.527344 20.96875 C 3.382812 20.472656 3.265625 19.96875 3.175781 19.457031 C 3.082031 18.949219 3.015625 18.433594 2.972656 17.917969 C 2.929688 17.402344 2.914062 16.882812 2.921875 16.367188 C 2.933594 15.847656 2.964844 15.332031 3.027344 14.816406 C 3.085938 14.300781 3.171875 13.792969 3.28125 13.285156 C 3.390625 12.777344 3.523438 12.277344 3.683594 11.785156 C 3.839844 11.292969 4.023438 10.808594 4.230469 10.332031 C 4.4375 9.855469 4.667969 9.394531 4.917969 8.941406 C 5.171875 8.488281 5.445312 8.046875 5.738281 7.621094 C 6.035156 7.195312 6.351562 6.785156 6.683594 6.390625 C 7.019531 5.996094 7.375 5.617188 7.746094 5.257812 C 8.121094 4.898438 8.507812 4.558594 8.914062 4.234375 C 9.320312 3.914062 9.742188 3.613281 10.179688 3.332031 C 10.613281 3.050781 11.0625 2.792969 11.523438 2.554688 C 11.984375 2.320312 12.457031 2.105469 12.9375 1.914062 C 13.421875 1.726562 13.910156 1.558594 14.410156 1.417969 C 14.90625 1.277344 15.410156 1.160156 15.921875 1.066406 C 16.433594 0.972656 16.945312 0.90625 17.460938 0.863281 C 17.976562 0.824219 18.496094 0.804688 19.011719 0.816406 C 19.53125 0.824219 20.046875 0.859375 20.5625 0.917969 C 21.078125 0.976562 21.589844 1.0625 22.09375 1.171875 C 22.601562 1.28125 23.101562 1.414062 23.59375 1.574219 C 24.085938 1.734375 24.570312 1.914062 25.046875 2.121094 C 25.523438 2.328125 25.988281 2.558594 26.441406 2.808594 C 26.890625 3.0625 27.332031 3.335938 27.757812 3.628906 C 28.183594 3.925781 28.59375 4.242188 28.988281 4.578125 C 29.382812 4.910156 29.761719 5.265625 30.121094 5.640625 C 30.480469 6.011719 30.824219 6.402344 31.144531 6.808594 C 31.464844 7.214844 31.769531 7.632812 32.046875 8.070312 C 32.328125 8.503906 32.585938 8.953125 32.824219 9.414062 C 33.058594 9.875 33.273438 10.347656 33.464844 10.828125 C 33.652344 11.3125 33.820312 11.800781 33.960938 12.300781 C 34.105469 12.800781 34.222656 13.304688 34.3125 13.8125 C 34.40625 14.324219 34.472656 14.835938 34.515625 15.351562 C 34.558594 15.867188 34.574219 16.386719 34.566406 16.90625 C 34.554688 17.421875 34.523438 17.9375 34.460938 18.453125 C 34.402344 18.96875 34.316406 19.480469 34.207031 19.984375 C 34.097656 20.492188 33.964844 20.992188 33.804688 21.484375 C 33.648438 21.980469 33.464844 22.464844 33.257812 22.9375 C 33.050781 23.414062 32.820312 23.878906 32.570312 24.332031 C 32.316406 24.785156 32.042969 25.222656 31.75 25.648438 C 31.453125 26.074219 31.136719 26.484375 30.804688 26.878906 C 30.46875 27.273438 30.113281 27.652344 29.742188 28.011719 C 29.367188 28.371094 28.980469 28.714844 28.574219 29.035156 C 28.167969 29.359375 27.746094 29.660156 27.308594 29.9375 C 26.875 30.21875 26.425781 30.476562 25.964844 30.714844 C 25.503906 30.953125 25.03125 31.164062 24.550781 31.355469 C 24.066406 31.546875 23.578125 31.710938 23.078125 31.851562 C 22.582031 31.996094 22.078125 32.113281 21.566406 32.203125 L 21.226562 30.335938 C 22.128906 30.171875 23.003906 29.925781 23.851562 29.589844 C 24.703125 29.253906 25.511719 28.835938 26.28125 28.34375 C 27.050781 27.847656 27.761719 27.28125 28.421875 26.648438 C 29.078125 26.011719 29.667969 25.320312 30.1875 24.566406 C 30.710938 23.816406 31.152344 23.019531 31.515625 22.183594 C 31.878906 21.34375 32.160156 20.476562 32.351562 19.582031 C 32.546875 18.691406 32.652344 17.785156 32.667969 16.871094 C 32.683594 15.957031 32.609375 15.050781 32.445312 14.152344 C 32.28125 13.253906 32.03125 12.375 31.699219 11.527344 C 31.363281 10.675781 30.945312 9.867188 30.453125 9.097656 C 29.957031 8.328125 29.390625 7.617188 28.757812 6.957031 C 28.121094 6.300781 27.425781 5.710938 26.675781 5.191406 C 25.925781 4.671875 25.128906 4.226562 24.289062 3.863281 C 23.453125 3.5 22.585938 3.21875 21.691406 3.027344 C 20.800781 2.832031 19.894531 2.730469 18.980469 2.714844 C 18.066406 2.699219 17.160156 2.769531 16.261719 2.933594 C 15.359375 3.097656 14.484375 3.347656 13.636719 3.683594 C 12.785156 4.015625 11.976562 4.433594 11.207031 4.925781 C 10.4375 5.421875 9.722656 5.988281 9.066406 6.625 C 8.410156 7.257812 7.820312 7.953125 7.300781 8.703125 C 6.777344 9.453125 6.335938 10.25 5.972656 11.089844 C 5.609375 11.925781 5.328125 12.792969 5.136719 13.6875 C 4.941406 14.582031 4.835938 15.484375 4.820312 16.398438 C 4.804688 17.3125 4.878906 18.21875 5.042969 19.117188 C 5.207031 20.019531 5.457031 20.894531 5.789062 21.742188 C 6.125 22.59375 6.542969 23.402344 7.035156 24.171875 C 7.53125 24.941406 8.097656 25.65625 8.730469 26.3125 C 9.367188 26.96875 10.0625 27.558594 10.8125 28.078125 C 11.5625 28.601562 12.359375 29.042969 13.199219 29.40625 C 14.035156 29.769531 14.902344 30.050781 15.796875 30.242188 C 16.6875 30.4375 17.59375 30.542969 18.507812 30.558594 C 19.421875 30.574219 20.328125 30.5 21.226562 30.335938 Z M 21.566406 32.203125 " fill-opacity="1" fill-rule="nonzero"/><path fill="#494f56" d="M 20.566406 32.351562 C 19.996094 32.417969 19.425781 32.453125 18.851562 32.457031 C 18.277344 32.460938 17.707031 32.433594 17.136719 32.375 C 16.566406 32.316406 16 32.230469 15.441406 32.109375 C 14.878906 31.988281 14.328125 31.839844 13.78125 31.660156 C 13.238281 31.480469 12.703125 31.273438 12.183594 31.035156 C 11.660156 30.796875 11.152344 30.53125 10.660156 30.238281 C 10.167969 29.945312 9.691406 29.625 9.234375 29.28125 C 8.777344 28.9375 8.335938 28.570312 7.917969 28.175781 C 7.5 27.785156 7.105469 27.371094 6.730469 26.933594 C 6.359375 26.5 6.011719 26.046875 5.6875 25.574219 C 5.363281 25.097656 5.066406 24.609375 4.796875 24.105469 C 4.523438 23.597656 4.28125 23.082031 4.066406 22.546875 C 3.851562 22.015625 3.667969 21.476562 3.511719 20.921875 C 3.359375 20.371094 3.234375 19.8125 3.136719 19.246094 C 3.042969 18.679688 2.980469 18.113281 2.945312 17.539062 C 2.914062 16.96875 2.914062 16.394531 2.941406 15.824219 C 2.972656 15.25 3.03125 14.679688 3.125 14.113281 C 3.214844 13.546875 3.335938 12.988281 3.488281 12.4375 C 3.640625 11.882812 3.824219 11.339844 4.035156 10.808594 C 4.246094 10.273438 4.484375 9.753906 4.75 9.246094 C 5.019531 8.738281 5.3125 8.25 5.636719 7.773438 C 5.957031 7.300781 6.300781 6.84375 6.671875 6.40625 C 7.042969 5.96875 7.4375 5.550781 7.851562 5.15625 C 8.269531 4.761719 8.703125 4.390625 9.160156 4.042969 C 9.617188 3.695312 10.089844 3.375 10.582031 3.078125 C 11.074219 2.785156 11.578125 2.515625 12.101562 2.273438 C 12.621094 2.035156 13.152344 1.824219 13.695312 1.640625 C 14.238281 1.457031 14.789062 1.304688 15.351562 1.179688 C 15.910156 1.058594 16.476562 0.964844 17.046875 0.902344 C 17.617188 0.84375 18.1875 0.8125 18.761719 0.8125 C 19.335938 0.8125 19.90625 0.84375 20.476562 0.90625 C 21.046875 0.96875 21.609375 1.0625 22.171875 1.1875 C 22.730469 1.3125 23.28125 1.464844 23.824219 1.648438 C 24.367188 1.835938 24.898438 2.046875 25.417969 2.289062 C 25.9375 2.53125 26.445312 2.800781 26.933594 3.097656 C 27.425781 3.394531 27.898438 3.714844 28.355469 4.0625 C 28.808594 4.414062 29.246094 4.785156 29.660156 5.179688 C 30.074219 5.574219 30.46875 5.992188 30.835938 6.429688 C 31.207031 6.867188 31.550781 7.324219 31.871094 7.800781 C 32.191406 8.277344 32.484375 8.769531 32.75 9.277344 C 33.019531 9.785156 33.257812 10.304688 33.46875 10.839844 C 33.675781 11.371094 33.859375 11.914062 34.007812 12.46875 C 34.160156 13.019531 34.28125 13.582031 34.371094 14.148438 C 34.460938 14.714844 34.519531 15.28125 34.546875 15.855469 C 34.574219 16.429688 34.574219 17 34.539062 17.574219 C 34.503906 18.144531 34.441406 18.714844 34.34375 19.28125 C 34.25 19.84375 34.121094 20.402344 33.964844 20.953125 C 33.808594 21.507812 33.625 22.046875 33.40625 22.578125 C 33.308594 22.824219 33.140625 22.996094 32.898438 23.097656 C 32.65625 23.199219 32.414062 23.199219 32.171875 23.101562 C 31.929688 23.003906 31.757812 22.835938 31.652344 22.59375 C 31.550781 22.351562 31.550781 22.109375 31.648438 21.867188 C 31.839844 21.398438 32 20.921875 32.140625 20.4375 C 32.277344 19.953125 32.386719 19.460938 32.472656 18.960938 C 32.558594 18.464844 32.613281 17.964844 32.644531 17.460938 C 32.671875 16.957031 32.675781 16.453125 32.652344 15.949219 C 32.625 15.445312 32.574219 14.945312 32.496094 14.445312 C 32.414062 13.949219 32.308594 13.453125 32.175781 12.96875 C 32.042969 12.480469 31.886719 12.003906 31.699219 11.535156 C 31.515625 11.0625 31.304688 10.605469 31.070312 10.160156 C 30.835938 9.710938 30.578125 9.28125 30.296875 8.863281 C 30.015625 8.441406 29.710938 8.039062 29.386719 7.65625 C 29.058594 7.269531 28.714844 6.902344 28.351562 6.554688 C 27.984375 6.207031 27.601562 5.878906 27.199219 5.574219 C 26.800781 5.265625 26.382812 4.984375 25.953125 4.722656 C 25.519531 4.460938 25.074219 4.222656 24.617188 4.011719 C 24.160156 3.796875 23.691406 3.609375 23.214844 3.449219 C 22.738281 3.285156 22.25 3.152344 21.757812 3.042969 C 21.265625 2.933594 20.769531 2.851562 20.269531 2.792969 C 19.765625 2.738281 19.261719 2.710938 18.757812 2.710938 C 18.253906 2.710938 17.75 2.738281 17.25 2.792969 C 16.746094 2.84375 16.25 2.925781 15.757812 3.035156 C 15.265625 3.144531 14.78125 3.277344 14.300781 3.4375 C 13.824219 3.601562 13.355469 3.785156 12.898438 4 C 12.4375 4.210938 11.992188 4.445312 11.5625 4.707031 C 11.128906 4.964844 10.710938 5.25 10.3125 5.554688 C 9.910156 5.859375 9.527344 6.1875 9.160156 6.535156 C 8.792969 6.882812 8.449219 7.246094 8.121094 7.632812 C 7.796875 8.019531 7.492188 8.417969 7.207031 8.835938 C 6.925781 9.253906 6.667969 9.6875 6.429688 10.132812 C 6.195312 10.578125 5.984375 11.039062 5.796875 11.507812 C 5.613281 11.976562 5.453125 12.453125 5.320312 12.941406 C 5.183594 13.425781 5.078125 13.917969 4.996094 14.417969 C 4.917969 14.914062 4.863281 15.414062 4.839844 15.917969 C 4.8125 16.421875 4.8125 16.925781 4.84375 17.429688 C 4.871094 17.933594 4.925781 18.4375 5.011719 18.933594 C 5.09375 19.429688 5.203125 19.921875 5.339844 20.410156 C 5.476562 20.894531 5.640625 21.371094 5.828125 21.839844 C 6.015625 22.308594 6.230469 22.761719 6.46875 23.207031 C 6.707031 23.652344 6.96875 24.082031 7.253906 24.5 C 7.539062 24.917969 7.84375 25.316406 8.171875 25.699219 C 8.503906 26.082031 8.851562 26.445312 9.21875 26.792969 C 9.585938 27.136719 9.972656 27.460938 10.375 27.765625 C 10.777344 28.066406 11.195312 28.347656 11.632812 28.605469 C 12.066406 28.863281 12.511719 29.097656 12.96875 29.304688 C 13.429688 29.515625 13.898438 29.699219 14.378906 29.855469 C 14.855469 30.015625 15.34375 30.148438 15.835938 30.253906 C 16.328125 30.359375 16.828125 30.4375 17.328125 30.488281 C 17.832031 30.539062 18.335938 30.5625 18.839844 30.558594 C 19.34375 30.554688 19.847656 30.523438 20.347656 30.46875 C 20.609375 30.4375 20.839844 30.503906 21.046875 30.664062 C 21.253906 30.828125 21.371094 31.039062 21.402344 31.300781 C 21.429688 31.5625 21.363281 31.792969 21.203125 32 C 21.039062 32.203125 20.828125 32.324219 20.566406 32.351562 Z M 20.566406 32.351562 " fill-opacity="1" fill-rule="nonzero"/></g></g><g clip-path="url(#4a49d4550d)"><g clip-path="url(#31cf720bb6)"><path fill="#ffffff" d="M 20.917969 28.621094 C 20.132812 28.761719 19.339844 28.828125 18.539062 28.8125 C 17.738281 28.800781 16.949219 28.707031 16.167969 28.539062 C 15.386719 28.367188 14.628906 28.125 13.894531 27.804688 C 13.160156 27.488281 12.464844 27.101562 11.808594 26.644531 C 11.152344 26.191406 10.546875 25.675781 9.988281 25.101562 C 9.433594 24.523438 8.941406 23.902344 8.507812 23.230469 C 8.074219 22.558594 7.710938 21.847656 7.417969 21.105469 C 7.125 20.359375 6.90625 19.597656 6.761719 18.808594 C 6.621094 18.023438 6.554688 17.230469 6.570312 16.429688 C 6.582031 15.628906 6.675781 14.839844 6.84375 14.058594 C 7.015625 13.277344 7.257812 12.519531 7.578125 11.785156 C 7.894531 11.050781 8.28125 10.355469 8.738281 9.699219 C 9.191406 9.042969 9.707031 8.4375 10.28125 7.878906 C 10.859375 7.324219 11.480469 6.832031 12.152344 6.398438 C 12.824219 5.964844 13.535156 5.601562 14.277344 5.308594 C 15.023438 5.015625 15.785156 4.796875 16.574219 4.65625 C 17.359375 4.511719 18.152344 4.449219 18.953125 4.460938 C 19.753906 4.472656 20.542969 4.566406 21.324219 4.734375 C 22.105469 4.90625 22.863281 5.148438 23.597656 5.46875 C 24.332031 5.785156 25.027344 6.171875 25.683594 6.628906 C 26.339844 7.082031 26.945312 7.597656 27.503906 8.171875 C 28.058594 8.75 28.550781 9.371094 28.984375 10.042969 C 29.417969 10.71875 29.78125 11.425781 30.074219 12.167969 C 30.367188 12.914062 30.585938 13.679688 30.726562 14.464844 C 30.871094 15.25 30.933594 16.042969 30.921875 16.84375 C 30.910156 17.644531 30.816406 18.433594 30.648438 19.214844 C 30.476562 19.996094 30.234375 20.753906 29.914062 21.488281 C 29.597656 22.222656 29.210938 22.917969 28.753906 23.574219 C 28.300781 24.230469 27.785156 24.835938 27.210938 25.394531 C 26.632812 25.949219 26.011719 26.441406 25.339844 26.875 C 24.664062 27.308594 23.957031 27.671875 23.214844 27.964844 C 22.46875 28.257812 21.703125 28.476562 20.917969 28.621094 L 20.308594 25.265625 C 20.875 25.160156 21.425781 25.003906 21.964844 24.792969 C 22.5 24.582031 23.007812 24.320312 23.492188 24.007812 C 23.976562 23.699219 24.425781 23.339844 24.839844 22.941406 C 25.253906 22.542969 25.625 22.105469 25.953125 21.632812 C 26.28125 21.160156 26.558594 20.65625 26.789062 20.128906 C 27.015625 19.601562 27.191406 19.054688 27.316406 18.492188 C 27.4375 17.929688 27.503906 17.363281 27.511719 16.785156 C 27.523438 16.210938 27.476562 15.640625 27.375 15.074219 C 27.269531 14.507812 27.113281 13.957031 26.902344 13.417969 C 26.691406 12.882812 26.429688 12.375 26.117188 11.890625 C 25.804688 11.40625 25.449219 10.957031 25.050781 10.542969 C 24.648438 10.128906 24.214844 9.757812 23.742188 9.429688 C 23.265625 9.101562 22.765625 8.824219 22.238281 8.59375 C 21.710938 8.367188 21.164062 8.191406 20.601562 8.066406 C 20.039062 7.945312 19.472656 7.878906 18.894531 7.871094 C 18.320312 7.859375 17.75 7.90625 17.183594 8.007812 C 16.617188 8.113281 16.066406 8.269531 15.527344 8.480469 C 14.992188 8.691406 14.484375 8.953125 14 9.265625 C 13.515625 9.578125 13.066406 9.933594 12.652344 10.332031 C 12.238281 10.734375 11.867188 11.167969 11.539062 11.640625 C 11.210938 12.117188 10.933594 12.617188 10.703125 13.144531 C 10.472656 13.671875 10.296875 14.21875 10.175781 14.78125 C 10.054688 15.34375 9.988281 15.910156 9.980469 16.488281 C 9.96875 17.0625 10.015625 17.632812 10.117188 18.199219 C 10.222656 18.765625 10.378906 19.316406 10.589844 19.855469 C 10.800781 20.390625 11.0625 20.898438 11.375 21.382812 C 11.683594 21.867188 12.042969 22.316406 12.441406 22.730469 C 12.839844 23.144531 13.277344 23.515625 13.75 23.84375 C 14.222656 24.171875 14.726562 24.449219 15.253906 24.679688 C 15.78125 24.910156 16.328125 25.085938 16.890625 25.207031 C 17.453125 25.328125 18.019531 25.394531 18.597656 25.402344 C 19.171875 25.414062 19.742188 25.367188 20.308594 25.265625 Z M 20.917969 28.621094 " fill-opacity="1" fill-rule="nonzero"/><path fill="#007bff" d="M 18.9375 28.8125 C 18.515625 28.820312 18.089844 28.804688 17.667969 28.765625 C 17.246094 28.730469 16.824219 28.667969 16.410156 28.589844 C 15.992188 28.507812 15.582031 28.402344 15.175781 28.28125 C 14.769531 28.15625 14.371094 28.007812 13.980469 27.84375 C 13.589844 27.675781 13.210938 27.492188 12.839844 27.285156 C 12.46875 27.078125 12.109375 26.855469 11.761719 26.613281 C 11.414062 26.367188 11.078125 26.109375 10.757812 25.828125 C 10.4375 25.550781 10.132812 25.257812 9.84375 24.945312 C 9.554688 24.636719 9.28125 24.3125 9.027344 23.972656 C 8.769531 23.632812 8.53125 23.28125 8.3125 22.917969 C 8.09375 22.554688 7.894531 22.183594 7.714844 21.796875 C 7.535156 21.414062 7.375 21.019531 7.238281 20.621094 C 7.097656 20.21875 6.980469 19.8125 6.886719 19.398438 C 6.789062 18.984375 6.714844 18.566406 6.664062 18.144531 C 6.609375 17.726562 6.578125 17.300781 6.570312 16.878906 C 6.5625 16.453125 6.574219 16.03125 6.613281 15.609375 C 6.648438 15.183594 6.707031 14.765625 6.785156 14.347656 C 6.863281 13.929688 6.964844 13.519531 7.089844 13.113281 C 7.210938 12.707031 7.355469 12.308594 7.519531 11.917969 C 7.683594 11.527344 7.867188 11.144531 8.074219 10.773438 C 8.277344 10.402344 8.5 10.039062 8.742188 9.691406 C 8.984375 9.34375 9.246094 9.007812 9.519531 8.6875 C 9.796875 8.367188 10.089844 8.058594 10.402344 7.769531 C 10.710938 7.476562 11.03125 7.203125 11.371094 6.945312 C 11.707031 6.691406 12.058594 6.449219 12.421875 6.230469 C 12.785156 6.011719 13.15625 5.808594 13.539062 5.628906 C 13.925781 5.445312 14.316406 5.285156 14.71875 5.144531 C 15.117188 5.003906 15.523438 4.886719 15.9375 4.789062 C 16.351562 4.691406 16.765625 4.613281 17.1875 4.558594 C 17.609375 4.503906 18.03125 4.472656 18.457031 4.460938 C 18.878906 4.453125 19.304688 4.464844 19.726562 4.5 C 20.148438 4.53125 20.570312 4.589844 20.988281 4.667969 C 21.402344 4.746094 21.816406 4.84375 22.222656 4.964844 C 22.628906 5.085938 23.027344 5.230469 23.421875 5.390625 C 23.8125 5.554688 24.195312 5.738281 24.566406 5.941406 C 24.941406 6.144531 25.300781 6.367188 25.652344 6.605469 C 26 6.847656 26.335938 7.105469 26.660156 7.378906 C 26.980469 7.65625 27.289062 7.949219 27.582031 8.257812 C 27.871094 8.5625 28.148438 8.886719 28.40625 9.222656 C 28.664062 9.558594 28.90625 9.910156 29.125 10.269531 C 29.347656 10.632812 29.550781 11.003906 29.734375 11.386719 C 29.917969 11.769531 30.078125 12.160156 30.222656 12.5625 C 30.363281 12.960938 30.484375 13.367188 30.582031 13.78125 C 30.683594 14.191406 30.761719 14.609375 30.816406 15.03125 C 30.875 15.449219 30.90625 15.875 30.917969 16.296875 C 30.929688 16.722656 30.921875 17.144531 30.886719 17.570312 C 30.855469 17.992188 30.800781 18.410156 30.726562 18.828125 C 30.648438 19.246094 30.550781 19.660156 30.429688 20.066406 C 30.367188 20.28125 30.265625 20.480469 30.121094 20.65625 C 29.980469 20.832031 29.8125 20.972656 29.613281 21.082031 C 29.414062 21.191406 29.203125 21.257812 28.976562 21.28125 C 28.753906 21.304688 28.53125 21.285156 28.316406 21.222656 C 28.097656 21.160156 27.902344 21.054688 27.726562 20.914062 C 27.550781 20.773438 27.40625 20.601562 27.296875 20.402344 C 27.191406 20.203125 27.125 19.992188 27.101562 19.769531 C 27.074219 19.542969 27.09375 19.324219 27.160156 19.105469 C 27.332031 18.519531 27.441406 17.917969 27.488281 17.308594 C 27.535156 16.695312 27.519531 16.085938 27.4375 15.480469 C 27.355469 14.871094 27.214844 14.28125 27.007812 13.703125 C 26.804688 13.125 26.539062 12.574219 26.21875 12.054688 C 25.898438 11.53125 25.527344 11.046875 25.105469 10.601562 C 24.683594 10.15625 24.222656 9.761719 23.71875 9.414062 C 23.210938 9.066406 22.675781 8.777344 22.113281 8.539062 C 21.546875 8.304688 20.960938 8.132812 20.359375 8.019531 C 19.757812 7.90625 19.148438 7.855469 18.535156 7.871094 C 17.925781 7.886719 17.320312 7.964844 16.722656 8.105469 C 16.128906 8.246094 15.550781 8.449219 15 8.710938 C 14.445312 8.972656 13.921875 9.289062 13.4375 9.660156 C 12.949219 10.03125 12.503906 10.449219 12.105469 10.914062 C 11.703125 11.378906 11.355469 11.878906 11.0625 12.414062 C 10.765625 12.953125 10.53125 13.511719 10.351562 14.101562 C 10.175781 14.6875 10.0625 15.285156 10.007812 15.894531 C 9.957031 16.507812 9.96875 17.117188 10.046875 17.722656 C 10.121094 18.332031 10.261719 18.925781 10.460938 19.503906 C 10.660156 20.082031 10.917969 20.636719 11.234375 21.160156 C 11.550781 21.683594 11.917969 22.171875 12.335938 22.621094 C 12.753906 23.066406 13.214844 23.46875 13.714844 23.820312 C 14.21875 24.171875 14.75 24.464844 15.316406 24.707031 C 15.878906 24.945312 16.460938 25.125 17.0625 25.242188 C 17.664062 25.359375 18.273438 25.414062 18.882812 25.402344 C 19.109375 25.398438 19.328125 25.441406 19.539062 25.523438 C 19.75 25.605469 19.933594 25.726562 20.097656 25.882812 C 20.261719 26.042969 20.386719 26.222656 20.476562 26.429688 C 20.566406 26.636719 20.613281 26.855469 20.617188 27.082031 C 20.621094 27.308594 20.578125 27.527344 20.496094 27.734375 C 20.414062 27.945312 20.292969 28.132812 20.136719 28.292969 C 19.980469 28.457031 19.796875 28.582031 19.589844 28.671875 C 19.382812 28.761719 19.164062 28.808594 18.9375 28.8125 Z M 18.9375 28.8125 " fill-opacity="1" fill-rule="nonzero"/></g></g><g clip-path="url(#20d592facb)"><path fill="#000000" d="M 27.945312 24.332031 C 29.355469 24.332031 30.261719 25.769531 30.28125 27.554688 L 25.609375 27.554688 C 25.628906 25.769531 26.539062 24.332031 27.945312 24.332031 Z M 27.945312 22.550781 C 25.75 22.550781 23.972656 24.8125 23.972656 27.601562 L 23.972656 27.671875 C 23.226562 27.9375 22.695312 28.632812 22.695312 29.449219 L 22.695312 33.894531 C 22.695312 35.871094 25.046875 37.476562 27.945312 37.476562 C 30.847656 37.476562 33.199219 35.871094 33.199219 33.894531 L 33.199219 29.449219 C 33.199219 28.632812 32.667969 27.9375 31.921875 27.671875 L 31.921875 27.601562 C 31.921875 24.8125 30.140625 22.550781 27.945312 22.550781 Z M 26.457031 31.757812 C 26.457031 30.960938 27.125 30.3125 27.945312 30.3125 C 28.769531 30.3125 29.4375 30.960938 29.4375 31.757812 C 29.4375 32.269531 29.164062 32.71875 28.75 32.976562 L 28.75 34.308594 L 27.140625 34.308594 L 27.140625 32.976562 C 26.730469 32.71875 26.457031 32.269531 26.457031 31.757812 Z M 26.457031 31.757812 " fill-opacity="1" fill-rule="evenodd"/></g><g fill="#000000" fill-opacity="1"><g transform="translate(16.610794, 21.890209)"><g><path d="M 3 1.328125 L 1.265625 1.328125 L 1.265625 -9.8125 L 3 -9.8125 Z M 3 1.328125 "/></g></g></g></svg>